<?xml version="1.0" encoding="UTF-8" standalone="no"?>
<svg
   xmlns:dc="http://purl.org/dc/elements/1.1/"
   xmlns:cc="http://creativecommons.org/ns#"
   xmlns:rdf="http://www.w3.org/1999/02/22-rdf-syntax-ns#"
   xmlns:svg="http://www.w3.org/2000/svg"
   xmlns="http://www.w3.org/2000/svg"
   enable-background="new 0 0 50 50"
   height="50px"
   id="Layer_1"
   version="1.1"
   viewBox="0 0 50 50"
   width="50px"
   xml:space="preserve"><metadata
     id="metadata4704"><rdf:RDF><cc:Work
         rdf:about=""><dc:format>image/svg+xml</dc:format><dc:type
           rdf:resource="http://purl.org/dc/dcmitype/StillImage" /><dc:title></dc:title></cc:Work></rdf:RDF></metadata><defs
     id="defs4702" /><rect
     fill="none"
     height="50"
     width="50"
     id="rect4696" /><path
     d="m 49.010837,28.165864 0,-6 -7.141,-1.167 c -0.423,-1.691 -1.087,-3.281 -1.962,-4.737 l 4.162,-5.932 -4.243,-4.2409996 -5.856,4.2099996 c -1.46,-0.8839996 -3.06,-1.5579996 -4.763,-1.9819996 l -1.245,-7.106 -6,0 -1.156,7.083 c -1.704,0.418 -3.313,1.083 -4.777,1.9629996 l -5.839,-4.1719996 -4.2430002,4.2409996 4.1070002,5.874 c -0.8880002,1.47 -1.5630002,3.077 -1.9920002,4.792 l -7.0520001,1.174 0,6 7.0440001,1.249 c 0.425,1.711 1.101,3.318 1.9920002,4.79 l -4.1630002,5.823 4.2410002,4.245 5.881,-4.119 c 1.468,0.882 3.073,1.552 4.777,1.973 l 1.18,7.087 6,0 1.261,-7.105 c 1.695,-0.43 3.297,-1.105 4.751,-1.99 l 5.922,4.155 4.242,-4.245 -4.227,-5.87 c 0.875,-1.456 1.539,-3.048 1.958,-4.739 l 7.141,-1.254 z m -24,5.046 c -4.418,0 -8,-3.582 -8,-8 0,-4.418 3.582,-8 8,-8 4.418,0 8,3.582 8,8 0,4.418 -3.582,8 -8,8 z"
     stroke-miterlimit="10"
     id="path4698"
     style="fill:none;stroke:#ffffff;stroke-width:2;stroke-linecap:round;stroke-miterlimit:10;stroke-opacity:1" /></svg>