<?xml version="1.0" encoding="UTF-8" standalone="no"?>
<svg
   xmlns:dc="http://purl.org/dc/elements/1.1/"
   xmlns:cc="http://creativecommons.org/ns#"
   xmlns:rdf="http://www.w3.org/1999/02/22-rdf-syntax-ns#"
   xmlns:svg="http://www.w3.org/2000/svg"
   xmlns="http://www.w3.org/2000/svg"
   xml:space="preserve"
   width="50px"
   viewBox="0 0 50 50"
   version="1.1"
   id="Layer_1"
   height="50px"
   enable-background="new 0 0 50 50"><metadata
     id="metadata5257"><rdf:RDF><cc:Work
         rdf:about=""><dc:format>image/svg+xml</dc:format><dc:type
           rdf:resource="http://purl.org/dc/dcmitype/StillImage" /><dc:title></dc:title></cc:Work></rdf:RDF></metadata><defs
     id="defs5255" /><path
     style="fill:none;stroke:#ffffff;stroke-width:2;stroke-linecap:round;stroke-miterlimit:10;stroke-opacity:1"
     id="path5249"
     stroke-miterlimit="10"
     d="m 28.712952,34.689006 c -0.146,-1.612 -0.09,-2.737 -0.09,-4.21 0.73,-0.383 2.038,-2.825 2.259,-4.888 0.574,-0.047 1.479,-0.607 1.744,-2.818 0.143,-1.187 -0.425,-1.855 -0.771,-2.065 0.934,-2.809 2.874,-11.4990002 -3.588,-12.3970002 -0.665,-1.1680001 -2.368,-1.7590001 -4.581,-1.7590001 -8.854,0.163 -9.922,6.6860003 -7.981,14.1560003 -0.345,0.21 -0.913,0.878 -0.771,2.065 0.266,2.211 1.17,2.771 1.744,2.818 0.22,2.062 1.58,4.505 2.312,4.888 0,1.473 0.055,2.598 -0.091,4.21 -1.752,4.71 -13.5729997,3.388 -14.1189997,12.472 l 37.9999997,0 c -0.545,-9.084 -12.315,-7.762 -14.067,-12.472 z" /><path
     style="fill:none;stroke:#ffffff;stroke-width:2;stroke-linecap:round;stroke-miterlimit:10;stroke-opacity:1"
     id="path5251"
     stroke-miterlimit="10"
     d="m 35.964664,38.781904 12.578,0 c -0.457,-7.649 -10.37,-6.534 -11.847,-10.5 -0.122,-1.359 -0.075,-2.306 -0.075,-3.547 0.616,-0.323 1.717,-2.378 1.903,-4.115 0.481,-0.041 1.245,-0.511 1.47,-2.372999 0.119,-1 -0.36,-1.562 -0.652,-1.74 0.786,-2.367 2.422,-9.6830003 -3.021,-10.4400003 -0.56,-0.983 -1.993,-1.48 -3.858,-1.48 -2.353,0.043 -4.052,0.62 -5.227,1.587" /></svg>