<?xml version="1.0" encoding="UTF-8" standalone="no"?>
<svg
   xmlns:dc="http://purl.org/dc/elements/1.1/"
   xmlns:cc="http://creativecommons.org/ns#"
   xmlns:rdf="http://www.w3.org/1999/02/22-rdf-syntax-ns#"
   xmlns:svg="http://www.w3.org/2000/svg"
   xmlns="http://www.w3.org/2000/svg"
   enable-background="new 0 0 50 50"
   height="50px"
   id="Layer_1"
   version="1.1"
   viewBox="0 0 50 50"
   width="50px"
   xml:space="preserve"><metadata
     id="metadata4153"><rdf:RDF><cc:Work
         rdf:about=""><dc:format>image/svg+xml</dc:format><dc:type
           rdf:resource="http://purl.org/dc/dcmitype/StillImage" /><dc:title></dc:title></cc:Work></rdf:RDF></metadata><defs
     id="defs4151" /><path
     d="M46,15v-4  c0-1.104-0.896-2-2-2c0,0-24.648,0-26,0c-1.469,0-2.484-4-4-4H3C1.896,5,1,5.896,1,7v4v29v4c0,1.104,0.896,2,2,2h39  c1.104,0,2-0.896,2-2"
     fill="none"
     stroke="#000000"
     stroke-linecap="round"
     stroke-miterlimit="10"
     stroke-width="2"
     id="path4145"
     style="stroke:#ffffff;stroke-opacity:1" /><path
     d="M1,44l5-27  c0-1.104,0.896-2,2-2h39c1.104,0,2,0.896,2,2l-5,27"
     fill="none"
     stroke="#000000"
     stroke-linecap="round"
     stroke-miterlimit="10"
     stroke-width="2"
     id="path4147"
     style="stroke:#ffffff;stroke-opacity:1" /></svg>