<?xml version="1.0" encoding="UTF-8" standalone="no"?>
<svg
   xmlns:dc="http://purl.org/dc/elements/1.1/"
   xmlns:cc="http://creativecommons.org/ns#"
   xmlns:rdf="http://www.w3.org/1999/02/22-rdf-syntax-ns#"
   xmlns:svg="http://www.w3.org/2000/svg"
   xmlns="http://www.w3.org/2000/svg"
   id="svg4136"
   xml:space="preserve"
   viewBox="0 0 512 512"
   version="1.1"
   style="enable-background:new 0 0 512 512;"><metadata
     id="metadata4152"><rdf:RDF><cc:Work
         rdf:about=""><dc:format>image/svg+xml</dc:format><dc:type
           rdf:resource="http://purl.org/dc/dcmitype/StillImage" /><dc:title></dc:title></cc:Work></rdf:RDF></metadata><defs
     id="defs4150" /><g
     id="Layer_1" /><path
     id="path4158"
     d="m 242.95392,507.68904 c -26.50412,-1.93592 -45.06819,-5.3975 -66.33948,-12.3701 C 122.57879,477.60641 76.092803,442.17343 44.682824,394.75681 36.634368,382.60683 33.620829,377.38018 27.720657,365.33779 15.185589,339.75344 7.2381728,312.32335 3.685357,282.38122 2.1944788,269.81652 2.1836232,239.76689 3.6654931,227.39531 8.8302885,184.27632 22.517135,147.28761 46.290774,112.20045 60.871874,90.680422 82.294475,68.23653 103.45519,52.310803 159.93571,9.8031216 232.37967,-7.0840705 302.1464,5.9945011 352.32938,15.401874 398.02198,39.57461 434.36412,75.941583 c 37.87435,37.900227 62.24704,85.428407 70.88663,138.233067 4.08451,24.9643 4.08451,56.16246 0,81.12676 -10.24089,62.59175 -42.79926,118.03888 -92.71346,157.89169 -13.17016,10.51541 -27.27194,19.47186 -43.68666,27.74667 -27.8999,14.06458 -55.58917,22.20872 -87.13615,25.629 -7.84994,0.85108 -32.63766,1.5675 -38.76056,1.12027 z M 177.49475,370.04183 c 2.68643,-0.88705 6.43621,-4.44445 40.36996,-38.29873 l 37.40845,-37.32085 37.40846,37.32085 c 33.93374,33.85428 37.68353,37.41168 40.36996,38.29873 3.78053,1.24833 7.16972,1.23989 10.90327,-0.0272 2.48713,-0.84404 4.67968,-2.69705 13.68784,-11.56807 12.56449,-12.37322 13.89346,-14.36612 13.85644,-20.77901 -0.0182,-3.15369 -0.36744,-4.88342 -1.39531,-6.91079 -0.95602,-1.88566 -12.49286,-13.8459 -38.11302,-39.51177 l -36.74199,-36.80754 37.01041,-37.10795 c 24.82157,-24.88699 37.38332,-37.8996 38.1427,-39.51171 1.65448,-3.51231 1.50767,-9.9653 -0.3076,-13.52113 -0.83479,-1.63523 -5.45364,-6.79017 -11.68423,-13.04038 -11.37293,-11.40873 -13.65398,-12.92679 -19.59142,-13.03818 -7.23711,-0.13577 -5.66765,-1.46107 -46.43748,39.21335 l -37.10794,37.0211 -36.80756,-36.76798 c -40.38618,-40.34275 -39.32016,-39.43714 -46.42257,-39.43714 -6.07483,0 -8.23282,1.38834 -19.53534,12.56805 -6.17708,6.10995 -10.68097,11.08973 -11.66477,12.89731 -2.15217,3.95424 -2.55789,7.88181 -1.27597,12.35207 1.01721,3.5472 1.10959,3.64581 38.3728,40.96646 l 37.35313,37.4107 -36.73971,36.80526 c -25.10112,25.14589 -37.14963,37.62735 -38.0337,39.40035 -1.85865,3.72755 -2.17049,7.63285 -0.9484,11.87732 0.97737,3.39451 1.54611,4.07692 12.54131,15.0479 9.32051,9.29999 12.03334,11.66953 14.22173,12.42205 3.57663,1.22988 7.52759,1.24649 11.16055,0.0469 l 0,2e-5 z"
     style="opacity:1;fill:none;fill-opacity:1;stroke:none;stroke-width:0.5;stroke-linejoin:round;stroke-miterlimit:4;stroke-dasharray:none;stroke-opacity:1" /><path
     id="path4164"
     d="M 245.35768,510.0928 C 218.85356,508.15688 200.28949,504.6953 179.0182,497.7227 124.98255,480.01017 78.496558,444.57719 47.086578,397.16057 39.038128,385.01059 36.024588,379.78394 30.124418,367.74155 17.589348,342.1572 9.6419284,314.72711 6.0891184,284.78498 c -1.49088,-12.5647 -1.50174,-42.61433 -0.0199,-54.98591 C 11.234018,186.68008 24.920858,149.69137 48.694498,114.6042 63.275598,93.084183 84.698198,70.640286 105.85892,54.714559 162.33944,12.206877 234.7834,-4.6803149 304.55013,8.3982571 354.73311,17.80563 400.42571,41.978366 436.76777,78.34534 c 37.8744,37.90022 62.2471,85.42841 70.8867,138.23307 4.0845,24.9643 4.0845,56.16246 0,81.12676 -10.2409,62.59175 -42.7993,118.03888 -92.71345,157.89169 -13.17016,10.51541 -27.27194,19.47186 -43.68666,27.74667 -27.8999,14.06458 -55.58917,22.20872 -87.13615,25.629 -7.84994,0.85108 -32.63766,1.5675 -38.76056,1.12027 z M 179.89851,372.44559 c 2.68643,-0.88705 6.43621,-4.44445 40.36996,-38.29873 l 37.40845,-37.32085 37.40846,37.32085 c 33.93374,33.85428 37.68353,37.41168 40.36996,38.29873 3.78053,1.24833 7.16972,1.23989 10.90327,-0.0272 2.48713,-0.84404 4.67968,-2.69705 13.68784,-11.56807 12.56449,-12.37322 13.89346,-14.36612 13.85644,-20.77901 -0.0182,-3.15369 -0.36744,-4.88342 -1.39531,-6.91079 -0.95602,-1.88566 -12.49286,-13.8459 -38.11302,-39.51177 l -36.74199,-36.80754 37.01041,-37.10795 c 24.82157,-24.88699 37.38332,-37.8996 38.1427,-39.51171 1.65448,-3.51231 1.50767,-9.9653 -0.3076,-13.52113 -0.83479,-1.63523 -5.45364,-6.79017 -11.68423,-13.04038 -11.37293,-11.40874 -13.65398,-12.9268 -19.59142,-13.03819 -7.23711,-0.13577 -5.66765,-1.46107 -46.43748,39.21336 l -37.10794,37.0211 -36.80756,-36.76798 c -40.38618,-40.34276 -39.32016,-39.43715 -46.42257,-39.43715 -6.07483,0 -8.23282,1.38834 -19.53534,12.56806 -6.17708,6.10995 -10.68097,11.08973 -11.66477,12.89731 -2.15217,3.95424 -2.55789,7.88181 -1.27597,12.35207 1.01721,3.5472 1.10959,3.64581 38.3728,40.96646 l 37.35313,37.4107 -36.73971,36.80526 c -25.10112,25.14589 -37.14963,37.62735 -38.0337,39.40035 -1.85865,3.72755 -2.17049,7.63285 -0.9484,11.87732 0.97737,3.39451 1.54611,4.07692 12.54131,15.0479 9.32051,9.29999 12.03334,11.66953 14.22173,12.42205 3.57663,1.22988 7.52759,1.24649 11.16055,0.0469 l 0,2e-5 z"
     style="opacity:1;fill:#ffffff;fill-opacity:1;stroke:none;stroke-width:0.5;stroke-linejoin:round;stroke-miterlimit:4;stroke-dasharray:none;stroke-opacity:1" /></svg>